<?xml version="1.0" encoding="utf-8"?><svg viewBox="0 0 18 19" xmlns="http://www.w3.org/2000/svg" xmlns:xlink="http://www.w3.org/1999/xlink"><style>:root>svg{display:none}:root>svg:target{display:block}</style><svg fill="none" viewBox="0 0 18 18" id="appartment" xmlns="http://www.w3.org/2000/svg"><path d="M14 8V2c0-1.1-.9-2-2-2H6C4.9 0 4 .9 4 2v2H2C.9 4 0 4.9 0 6v10c0 1.1.9 2 2 2h6v-4h2v4h6c1.1 0 2-.9 2-2v-6c0-1.1-.9-2-2-2h-2zM4 16H2v-2h2v2zm0-4H2v-2h2v2zm0-4H2V6h2v2zm4 4H6v-2h2v2zm0-4H6V6h2v2zm0-4H6V2h2v2zm4 8h-2v-2h2v2zm0-4h-2V6h2v2zm0-4h-2V2h2v2zm4 12h-2v-2h2v2zm0-4h-2v-2h2v2z" fill="#888B97"/></svg><svg fill="none" viewBox="0 0 7 14" id="arrow" xmlns="http://www.w3.org/2000/svg"><path d="M.993.002a.988.988 0 00-.879.532A1.002 1.002 0 00.23 1.638l4.442 5.348-4.284 5.358a1 1 0 00.15 1.407.99.99 0 001.142.12.993.993 0 00.305-.27l4.79-5.986a1.002 1.002 0 000-1.267L1.815.36a.992.992 0 00-.823-.36z" fill="#fff"/></svg><svg fill="none" viewBox="0 0 18 19" id="house" xmlns="http://www.w3.org/2000/svg"><path d="M18 8.832V17.5a1.508 1.508 0 01-.792 1.326c-.216.117-.46.177-.706.174h-4.505a.75.75 0 01-.75-.75v-4.5a.75.75 0 00-.75-.75h-3a.75.75 0 00-.75.75v4.5a.75.75 0 01-.75.75H1.5a1.49 1.49 0 01-1.124-.507A1.544 1.544 0 010 17.466V8.832a1.503 1.503 0 01.491-1.11l7.5-6.819a1.494 1.494 0 012.018 0l7.5 6.819A1.504 1.504 0 0118 8.832z" fill="#10B981"/></svg><svg fill="none" viewBox="0 0 18 18" id="villa" xmlns="http://www.w3.org/2000/svg"><path d="M4 18H1c-.55 0-1-.45-1-1V5.69c0-.42.25-.79.64-.94l11-4.23a1 1 0 011.36.94V7H5c-.55 0-1 .45-1 1v10zm10-9H7c-.55 0-1 .45-1 1v7c0 .55.45 1 1 1h4v-4c0-.55.45-1 1-1s1 .45 1 1v4h4c.55 0 1-.45 1-1V9c0-1.1-.9-2-2-2s-2 .9-2 2z" fill="#888B97"/></svg></svg>