<svg width="14" height="14" viewBox="0 0 14 14" fill="none" xmlns="http://www.w3.org/2000/svg">
<path d="M11.8 3.79999H1.80001V3.39999L10.6 2.69599V3.39999H11.8V2.19999C11.8 1.31999 11.0872 0.702389 10.2168 0.826389L2.18401 1.97359C1.31281 2.09839 0.600006 2.91999 0.600006 3.79999V11.8C0.600006 12.2243 0.768577 12.6313 1.06864 12.9314C1.36869 13.2314 1.77566 13.4 2.20001 13.4H11.8C12.2244 13.4 12.6313 13.2314 12.9314 12.9314C13.2314 12.6313 13.4 12.2243 13.4 11.8V5.39999C13.4 4.97564 13.2314 4.56868 12.9314 4.26862C12.6313 3.96856 12.2244 3.79999 11.8 3.79999ZM10.6 9.40479C10.4424 9.40474 10.2863 9.37364 10.1407 9.31326C9.99504 9.25289 9.86274 9.16442 9.75131 9.05292C9.63988 8.94141 9.5515 8.80905 9.49123 8.66339C9.43095 8.51773 9.39995 8.36163 9.40001 8.20399C9.40006 8.04635 9.43116 7.89027 9.49153 7.74465C9.55191 7.59903 9.64037 7.46673 9.75188 7.3553C9.86338 7.24387 9.99574 7.15549 10.1414 7.09521C10.2871 7.03493 10.4432 7.00394 10.6008 7.00399C10.9192 7.0041 11.2245 7.13067 11.4495 7.35586C11.6745 7.58105 11.8009 7.88642 11.8008 8.20479C11.8007 8.52315 11.6741 8.82844 11.4489 9.05348C11.2237 9.27853 10.9184 9.40489 10.6 9.40479Z" fill="#047857"/>
</svg>
