<svg width="18" height="18" viewBox="0 0 18 18" fill="none" xmlns="http://www.w3.org/2000/svg">
<path d="M4 18.0001H1C0.45 18.0001 0 17.5501 0 17.0001V5.69006C0 5.27006 0.25 4.90006 0.64 4.75006L11.64 0.52006C11.7921 0.461382 11.9561 0.440759 12.118 0.459986C12.2798 0.479212 12.4345 0.537706 12.5686 0.630376C12.7027 0.723045 12.8121 0.847081 12.8873 0.991686C12.9624 1.13629 13.0012 1.29708 13 1.46006V7.00006H5C4.45 7.00006 4 7.45006 4 8.00006V18.0001ZM14 9.00006H7C6.45 9.00006 6 9.45006 6 10.0001V17.0001C6 17.5501 6.45 18.0001 7 18.0001H11V14.0001C11 13.4501 11.45 13.0001 12 13.0001C12.55 13.0001 13 13.4501 13 14.0001V18.0001H17C17.55 18.0001 18 17.5501 18 17.0001V9.00006C18 7.90006 17.1 7.00006 16 7.00006C14.9 7.00006 14 7.90006 14 9.00006Z" fill="#888B97"/>
</svg>
