<svg width="12" height="14" viewBox="0 0 12 14" fill="none" xmlns="http://www.w3.org/2000/svg">
<path d="M11.0328 6.33124C10.7295 5.64852 10.2885 5.03574 9.7375 4.53124L9.28281 4.11406C9.26737 4.10028 9.24879 4.0905 9.22869 4.08558C9.2086 4.08067 9.1876 4.08076 9.16754 4.08585C9.14749 4.09094 9.12899 4.10087 9.11367 4.11478C9.09835 4.12869 9.08668 4.14615 9.07969 4.16562L8.87656 4.74843C8.75 5.11406 8.51719 5.48749 8.1875 5.85468C8.16563 5.87812 8.14063 5.88437 8.12344 5.88593C8.10625 5.88749 8.07969 5.88437 8.05625 5.86249C8.03437 5.84374 8.02344 5.81562 8.025 5.78749C8.08281 4.84687 7.80156 3.78593 7.18594 2.63124C6.67656 1.67187 5.96875 0.923431 5.08437 0.401556L4.43906 0.0218687C4.35469 -0.0281313 4.24688 0.0374936 4.25156 0.135931L4.28594 0.885931C4.30937 1.39843 4.25 1.85156 4.10938 2.22812C3.9375 2.68906 3.69062 3.11718 3.375 3.50156C3.15535 3.76869 2.90639 4.0103 2.63281 4.22187C1.97391 4.72838 1.43815 5.37739 1.06562 6.12031C0.694022 6.8697 0.500453 7.69477 0.5 8.53124C0.5 9.26874 0.645312 9.98281 0.932812 10.6562C1.21042 11.3046 1.61103 11.8931 2.1125 12.3891C2.61875 12.8891 3.20625 13.2828 3.86094 13.5562C4.53906 13.8406 5.25781 13.9844 6 13.9844C6.74219 13.9844 7.46094 13.8406 8.13906 13.5578C8.79214 13.286 9.38601 12.8895 9.8875 12.3906C10.3938 11.8906 10.7906 11.3062 11.0672 10.6578C11.3543 9.98621 11.5015 9.26318 11.5 8.53281C11.5 7.77031 11.3438 7.02968 11.0328 6.33124Z" fill="#EF4444"/>
</svg>
