<svg width="25" height="24" viewBox="0 0 25 24" fill="none" xmlns="http://www.w3.org/2000/svg">
<path d="M23.0391 11.9554H1.96091C1.13081 11.9554 0.455322 12.6308 0.455322 13.4609C0.455322 14.291 1.13081 14.9665 1.96091 14.9665H23.0391C23.8692 14.9665 24.5447 14.291 24.5447 13.4609C24.5447 12.6308 23.8692 11.9554 23.0391 11.9554Z" fill="#888B97"/>
<path d="M23.1776 13.9819C22.9056 13.9056 22.6325 14.0602 22.5573 14.3272L22.5181 14.4647H2.48279L2.44266 14.3272C2.36738 14.0602 2.09237 13.9076 1.82236 13.9819C1.55535 14.0581 1.40178 14.3362 1.4781 14.6022L2.86121 19.4441C3.28978 20.9447 4.67897 21.9926 6.23875 21.9926H18.7602C20.3209 21.9926 21.7091 20.9447 22.1377 19.4441L23.5208 14.6022C23.5981 14.3362 23.4435 14.0581 23.1776 13.9819ZM6.23974 19.9851C5.57126 19.9851 4.97505 19.5364 4.79236 18.893L4.14096 16.6106C4.06469 16.3436 4.21925 16.0665 4.48522 15.9903C4.7542 15.914 5.03024 16.0695 5.10552 16.3356L5.75692 18.618C5.81916 18.8318 6.01687 18.9824 6.23969 18.9824C6.51672 18.9824 6.74157 19.2072 6.74157 19.4843C6.74162 19.7613 6.51677 19.9851 6.23974 19.9851Z" fill="#888B97"/>
<path d="M7.20338 21.041C6.95548 20.9196 6.65535 21.017 6.52987 21.2659L5.52616 23.2733C5.4027 23.5212 5.50306 23.8224 5.75101 23.9469C5.82426 23.983 5.90058 24.0001 5.97586 24.0001C6.15954 24.0001 6.33621 23.8987 6.42452 23.7221L7.42823 21.7146C7.55169 21.4666 7.45129 21.1655 7.20338 21.041Z" fill="#888B97"/>
<path d="M19.4738 23.2743L18.4701 21.2669C18.3457 21.0179 18.0445 20.9186 17.7966 21.042C17.5487 21.1665 17.4483 21.4676 17.5717 21.7155L18.5754 23.723C18.6638 23.8986 18.8404 24 19.0241 24C19.0994 24 19.1757 23.9829 19.249 23.9478C19.4969 23.8233 19.5973 23.5222 19.4738 23.2743Z" fill="#888B97"/>
<path d="M20.6151 0C20.1032 0 19.6214 0.199725 19.2591 0.5621L17.6662 2.15501C17.4705 2.35073 17.4705 2.66893 17.6662 2.86465C17.8619 3.06038 18.1801 3.06038 18.3758 2.86465L19.9687 1.27274C20.1403 1.10011 20.3702 1.00474 20.6201 1.00474C21.124 1.00474 21.5335 1.41426 21.5335 1.91811V12.4572C21.5335 12.7342 21.7583 12.9591 22.0354 12.9591C22.3124 12.9591 22.5372 12.7342 22.5382 12.4562V1.91713C22.5383 0.860206 21.6791 0 20.6151 0Z" fill="#888B97"/>
<path d="M18.8776 2.65687L17.8739 1.65317C17.7595 1.53874 17.5999 1.48553 17.4373 1.51263L14.928 1.92417C14.7433 1.95428 14.5917 2.08475 14.5325 2.26142C14.4733 2.43809 14.5185 2.63481 14.649 2.76829L17.6601 5.86979C17.7555 5.96916 17.887 6.02237 18.0195 6.02237C18.0666 6.02237 18.1148 6.01536 18.162 6.00129C18.3406 5.94911 18.4761 5.80157 18.5123 5.61887L19.0141 3.10958C19.0472 2.94594 18.996 2.77628 18.8776 2.65687Z" fill="#888B97"/>
<path d="M12.3525 6.08054C12.1567 5.88481 11.8385 5.88481 11.6428 6.08054L10.6391 7.08425C10.4434 7.27998 10.4434 7.59817 10.6391 7.7939C10.7375 7.89124 10.8659 7.94046 10.9944 7.94046C11.1229 7.94046 11.2514 7.89129 11.3488 7.7939L12.3525 6.79019C12.5482 6.59442 12.5482 6.27627 12.3525 6.08054Z" fill="#888B97"/>
<path d="M14.3599 8.08796C14.1641 7.89223 13.846 7.89223 13.6502 8.08796L12.6465 9.09166C12.4508 9.28739 12.4508 9.60559 12.6465 9.80131C12.7449 9.89866 12.8733 9.94787 13.0018 9.94787C13.1303 9.94787 13.2588 9.89871 13.3562 9.80131L14.3599 8.79761C14.5556 8.60188 14.5556 8.28368 14.3599 8.08796Z" fill="#888B97"/>
<path d="M15.3636 5.07679C15.1679 4.88106 14.8497 4.88106 14.654 5.07679L13.6503 6.0805C13.4545 6.27622 13.4545 6.59442 13.6503 6.79014C13.7487 6.88749 13.8771 6.9367 14.0056 6.9367C14.1341 6.9367 14.2625 6.88754 14.3599 6.79014L15.3636 5.78644C15.5594 5.59071 15.5594 5.27251 15.3636 5.07679Z" fill="#888B97"/>
</svg>
