<svg width="25" height="22" viewBox="0 0 25 22" fill="none" xmlns="http://www.w3.org/2000/svg">
<path d="M23.2884 4.00006H18.9324C18.2631 4.00006 17.7207 4.53672 17.7207 5.19962V8.31357H14.5759C13.9064 8.31357 13.3641 8.85003 13.3641 9.51298V12.6271H10.2192C9.5497 12.6271 9.00752 13.1644 9.00752 13.8266V17.0907H5.71171C5.39012 17.0907 5.08195 17.217 4.85482 17.4417C4.6275 17.6665 4.5 17.973 4.5 18.2902L4.50039 20.7999C4.50039 21.4635 5.04297 22.0001 5.71206 22.0001H23.2884C23.9579 22.0001 24.5 21.4635 24.5 20.7999V5.19957C24.5001 4.53672 23.9579 4.00006 23.2884 4.00006Z" fill="#888B97"/>
<path d="M17.264 0.245364C16.9425 -0.0760517 16.4158 -0.0822289 16.0863 0.23049C10.7431 5.30554 5.65982 10.2624 0.744094 15.055C0.587683 15.2075 0.5 15.4146 0.5 15.6297V21.1877C0.5 21.6356 0.87278 22.0001 1.33294 22.0001C1.79264 22.0001 2.16608 21.6358 2.16608 21.1877V15.9657C7.00203 11.2504 12.0017 6.37802 17.2485 1.39375C17.5778 1.08108 17.5845 0.566583 17.264 0.245364Z" fill="#888B97"/>
</svg>
